# xmcd
#
# Track frame offsets: 
#        150
#        22277
#        42675
#        63327
#        78713
#        94256
#        111488
#        133000
#        150952
#        167412
#
# Disc length: 2372 seconds
#
# Revision: 0
# Processed by: cddbd v1.5.2PL0 Copyright (c) Steve Scherf et al.
# Submitted via: ExactAudioCopy v0.95b3
#
DISCID=8709420a
DTITLE=Macho Gang - Macho and Lions
DYEAR=1989
DGENRE=Eurodance
TTITLE0=My Lion
TTITLE1=When Somebody Loves Me
TTITLE2=Obladi Oblada
TTITLE3=Try It Out
TTITLE4=Dancer
TTITLE5=Sahara
TTITLE6=I Love You
TTITLE7=Naughty Boy
TTITLE8=Honey
TTITLE9=Cinderella
EXTD=
EXTT0=
EXTT1=
EXTT2=
EXTT3=
EXTT4=
EXTT5=
EXTT6=
EXTT7=
EXTT8=
EXTT9=
PLAYORDER=
